{
  "accessors": [
    {
      "bufferView": 2,
      "componentType": 5126,
      "count": 16561,
      "max": [
        25.952957153320313,
        -0.5334969758987427,
        4.981182098388672
      ],
      "min": [
        -26.327491760253906,
        -4.10939884185791,
        -16.540790557861328
      ],
      "type": "VEC3"
    },
    {
      "bufferView": 2,
      "byteOffset": 198732,
      "componentType": 5126,
      "count": 16561,
      "max": [
        0.999991238117218,
        0.9999993443489075,
        0.9999902248382568
      ],
      "min": [
        -0.999991238117218,
        -0.9999886751174927,
        -0.9999898076057434
      ],
      "type": "VEC3"
    },
    {
      "bufferView": 3,
      "componentType": 5126,
      "count": 16561,
      "max": [
        0.9999995231628418,
        0.999992311000824,
        0.9999909996986389,
        1.0
      ],
      "min": [
        -0.9999993443489075,
        -0.9999986290931702,
        -0.999995768070221,
        -1.0
      ],
      "type": "VEC4"
    },
    {
      "bufferView": 1,
      "componentType": 5126,
      "count": 16561,
      "max": [
        0.9953609704971313,
        0.9980469942092896
      ],
      "min": [
        0.000610999995842576,
        0.0030519999563694
      ],
      "type": "VEC2"
    },
    {
      "bufferView": 1,
      "byteOffset": 132488,
      "componentType": 5126,
      "count": 16561,
      "max": [
        0.9953609704971313,
        0.9980469942092896
      ],
      "min": [
        0.000610999995842576,
        0.0030519999563694
      ],
      "type": "VEC2"
    },
    {
      "bufferView": 1,
      "byteOffset": 264976,
      "componentType": 5126,
      "count": 16561,
      "max": [
        0.9953609704971313,
        0.9980469942092896
      ],
      "min": [
        0.000610999995842576,
        0.0030519999563694
      ],
      "type": "VEC2"
    },
    {
      "bufferView": 0,
      "componentType": 5125,
      "count": 24462,
      "type": "SCALAR"
    }
  ],
  "asset": {
    "extras": {
      "author": "Carlos.Maciel (https://sketchfab.com/Carlos.Maciel)",
      "license": "CC-BY-4.0 (http://creativecommons.org/licenses/by/4.0/)",
      "source": "https://sketchfab.com/3d-models/b-2-spirit-bomber-12244128967f4d93b9cac52b275c3d51",
      "title": "B-2 Spirit Bomber"
    },
    "generator": "Sketchfab-13.1.0",
    "version": "2.0"
  },
  "bufferViews": [
    {
      "buffer": 0,
      "byteLength": 97848,
      "name": "floatBufferViews",
      "target": 34963
    },
    {
      "buffer": 0,
      "byteLength": 397464,
      "byteOffset": 97848,
      "byteStride": 8,
      "name": "floatBufferViews",
      "target": 34962
    },
    {
      "buffer": 0,
      "byteLength": 397464,
      "byteOffset": 495312,
      "byteStride": 12,
      "name": "floatBufferViews",
      "target": 34962
    },
    {
      "buffer": 0,
      "byteLength": 264976,
      "byteOffset": 892776,
      "byteStride": 16,
      "name": "floatBufferViews",
      "target": 34962
    }
  ],
  "buffers": [
    {
      "byteLength": 1157752,
      "uri": "scene.bin"
    }
  ],
  "images": [
    {
      "uri": "textures/54a7ef9d_dds_baseColor.jpeg"
    },
    {
      "uri": "textures/54a7ef9d_dds_metallicRoughness.png"
    },
    {
      "uri": "textures/54a7ef9d_dds_normal.png"
    }
  ],
  "materials": [
    {
      "doubleSided": true,
      "name": "54a7ef9d_dds",
      "normalTexture": {
        "index": 2,
        "scale": 0.8380839970066256
      },
      "occlusionTexture": {
        "index": 1
      },
      "pbrMetallicRoughness": {
        "baseColorTexture": {
          "index": 0
        },
        "metallicRoughnessTexture": {
          "index": 1
        }
      }
    }
  ],
  "meshes": [
    {
      "name": "B-2 Spirit_54a7ef9d_dds_0",
      "primitives": [
        {
          "attributes": {
            "NORMAL": 1,
            "POSITION": 0,
            "TANGENT": 2,
            "TEXCOORD_0": 3,
            "TEXCOORD_1": 4,
            "TEXCOORD_2": 5
          },
          "indices": 6,
          "material": 0,
          "mode": 4
        }
      ]
    }
  ],
  "nodes": [
    {
      "children": [
        1
      ],
      "matrix": [
        1.0,
        0.0,
        0.0,
        0.0,
        0.0,
        2.220446049250313e-16,
        -1.0,
        0.0,
        0.0,
        1.0,
        2.220446049250313e-16,
        0.0,
        0.0,
        0.0,
        0.0,
        1.0
      ],
      "name": "Sketchfab_model"
    },
    {
      "children": [
        2
      ],
      "matrix": [
        0.009999999776482582,
        0.0,
        0.0,
        0.0,
        0.0,
        0.0,
        0.009999999776482582,
        0.0,
        0.0,
        -0.009999999776482582,
        0.0,
        0.0,
        0.0,
        0.0,
        0.0,
        1.0
      ],
      "name": "untitled.fbx"
    },
    {
      "children": [
        3,
        5,
        7
      ],
      "name": "RootNode"
    },
    {
      "children": [
        4
      ],
      "matrix": [
        -65.15581009765468,
        -44.527143038140764,
        -61.41704928909654,
        0.0,
        -32.40135466989878,
        89.5395708958271,
        -30.542085476036902,
        0.0,
        68.59207001076176,
        1.2755314797120858e-05,
        -72.76761921184276,
        0.0,
        2498.232177734375,
        901.7359008789063,
        692.5791015625,
        1.0
      ],
      "name": "Camera"
    },
    {
      "name": "Object_4"
    },
    {
      "children": [
        6
      ],
      "matrix": [
        100.0,
        0.0,
        0.0,
        0.0,
        0.0,
        99.99999999999866,
        1.6292067073209114e-05,
        0.0,
        0.0,
        -1.6292067073209114e-05,
        99.99999999999866,
        0.0,
        0.0,
        680.020263671875,
        0.0,
        1.0
      ],
      "name": "B-2 Spirit"
    },
    {
      "mesh": 0,
      "name": "B-2 Spirit_54a7ef9d_dds_0"
    },
    {
      "children": [
        8
      ],
      "matrix": [
        31.17197674282498,
        25.871944879449504,
        -91.42729534498713,
        0.0,
        -63.86578293104708,
        76.94908557354253,
        -2.184316755249327e-06,
        0.0,
        70.3524671674644,
        58.39075866565149,
        40.50987121555054,
        0.0,
        0.0,
        1871.2734375,
        -2301.74169921875,
        1.0
      ],
      "name": "Sun"
    },
    {
      "children": [
        9
      ],
      "matrix": [
        1.0,
        0.0,
        0.0,
        0.0,
        0.0,
        2.220446049250313e-16,
        1.0,
        0.0,
        0.0,
        -1.0,
        2.220446049250313e-16,
        0.0,
        0.0,
        0.0,
        0.0,
        1.0
      ],
      "name": "Object_8"
    },
    {
      "name": "Object_9"
    }
  ],
  "samplers": [
    {
      "magFilter": 9729,
      "minFilter": 9987,
      "wrapS": 10497,
      "wrapT": 10497
    }
  ],
  "scene": 0,
  "scenes": [
    {
      "name": "Sketchfab_Scene",
      "nodes": [
        0
      ]
    }
  ],
  "textures": [
    {
      "sampler": 0,
      "source": 0
    },
    {
      "sampler": 0,
      "source": 1
    },
    {
      "sampler": 0,
      "source": 2
    }
  ]
}
